<?xml version="1.0" standalone="no"?>
<!DOCTYPE svg PUBLIC "-//W3C//DTD SVG 1.1//EN" "http://www.w3.org/Graphics/SVG/1.1/DTD/svg11.dtd" >
<svg xmlns="http://www.w3.org/2000/svg" xmlns:xlink="http://www.w3.org/1999/xlink" version="1.1">
<metadata></metadata>
<defs>
<font id="muli_extralightregular" horiz-adv-x="1228" >
<font-face units-per-em="2048" ascent="1638" descent="-410" />
<missing-glyph horiz-adv-x="512" />
<glyph unicode="&#xfb01;" horiz-adv-x="1075" d="M16 950v74h205v168q0 170 79 245.5t269 75.5h54v-75h-52q-113 0 -167 -21.5t-75.5 -80t-21.5 -179.5v-133h592v-1024h-86v950h-506v-950h-86v950h-205zM788 1309v135h134v-135h-134z" />
<glyph unicode="&#xfb02;" horiz-adv-x="1083" d="M16 950v74h205v209q0 143 69.5 213t190.5 70q57 0 119 -17v-84q-55 16 -108 17q-91 0 -138 -48.5t-47 -177.5v-182h273v-74h-273v-950h-86v950h-205zM817 0v1507h84v-1507h-84z" />
<glyph horiz-adv-x="0" />
<glyph unicode="&#xd;" horiz-adv-x="512" />
<glyph horiz-adv-x="0" />
<glyph horiz-adv-x="0" />
<glyph unicode=" "  horiz-adv-x="512" />
<glyph unicode="&#x09;" horiz-adv-x="512" />
<glyph unicode="&#xa0;" horiz-adv-x="512" />
<glyph unicode="!" horiz-adv-x="438" d="M150 0v145h139v-145h-139zM164 1458h108l-26 -1122h-56z" />
<glyph unicode="&#x22;" horiz-adv-x="813" d="M154 1458h106l-22 -549h-58zM553 1458h106l-22 -549h-58z" />
<glyph unicode="#" horiz-adv-x="1241" d="M53 395v82h236l100 520h-295v82h312l73 379h88l-73 -379h389l73 379h88l-73 -379h215v-82h-232l-100 -520h293v-82h-309l-76 -395h-88l76 395h-390l-75 -395h-88l75 395h-219zM377 477h389l100 520h-389z" />
<glyph unicode="$" d="M111 186l43 74q104 -94 207.5 -140t228.5 -52v606q-139 35 -231.5 74.5t-154 116.5t-61.5 204q0 113 56.5 203t159 143t233.5 60v221h86v-223q123 -10 231.5 -59.5t188.5 -135.5l-43 -72q-152 164 -375 183v-648q135 -33 223 -69.5t145.5 -107t57.5 -185.5 q0 -162 -119 -269.5t-309 -123.5v-224h-86v222q-141 4 -264 56t-217 146zM231 1067q0 -92 47.5 -150.5t123 -91t188.5 -61.5v627q-168 -10 -263.5 -95.5t-95.5 -228.5zM680 70q158 12 247 94t89 217q0 115 -86 172t-250 98v-581z" />
<glyph unicode="%" horiz-adv-x="1896" d="M135 1026q0 223 88 335t248 112t249 -112t89 -333q0 -223 -89 -334.5t-249 -111.5t-248 111.5t-88 332.5zM227 1028q0 -188 60.5 -279.5t183.5 -91.5t182.5 90.5t59.5 280.5q0 186 -59.5 276.5t-182.5 90.5t-183.5 -90.5t-60.5 -276.5zM475 0l842 1458h102l-839 -1458 h-105zM1087 432q0 223 89.5 334t248.5 111q160 0 249 -111t89 -334q0 -221 -90 -333.5t-248 -112.5q-159 0 -248.5 112.5t-89.5 333.5zM1182 432q0 -188 60.5 -278.5t182.5 -90.5q123 0 182.5 89.5t59.5 279.5q0 188 -59.5 277.5t-182.5 89.5t-183 -89t-60 -278z" />
<glyph unicode="&#x26;" horiz-adv-x="1341" d="M133 352q0 127 76 230.5t256 222.5l27 18q-106 127 -144.5 201t-38.5 152q0 135 88 216t236 81q135 0 215 -74t80 -199q0 -72 -27 -128t-93.5 -118.5t-191.5 -148.5l390 -471q109 199 110 502h88q-8 -344 -143 -568l4 -6q106 -123 274 -219l-57 -59q-164 94 -272 213 q-82 -102 -193.5 -156.5t-245.5 -54.5q-129 0 -228 46t-154.5 129t-55.5 191zM219 350q0 -131 96.5 -207.5t259.5 -76.5q236 -1 383 194l-413 498q-4 -2 -8.5 -6t-12.5 -9q-172 -115 -238.5 -200.5t-66.5 -192.5zM403 1176q0 -68 33 -130.5t127 -177.5q158 109 215.5 176.5 t57.5 147.5q0 90 -55.5 144.5t-147.5 54.5q-104 0 -167 -59.5t-63 -155.5z" />
<glyph unicode="'" horiz-adv-x="413" d="M154 1458h106l-22 -549h-58z" />
<glyph unicode="(" horiz-adv-x="581" d="M219 545q0 479 211 913h80q-203 -459 -203 -913q0 -453 203 -918h-78q-213 433 -213 918z" />
<glyph unicode=")" horiz-adv-x="581" d="M72 -373q201 467 200 918q0 453 -200 913h80q211 -440 210 -913q0 -479 -212 -918h-78z" />
<glyph unicode="*" horiz-adv-x="925" d="M80 1192l26 76l322 -113l-8 340h80l-6 -342l325 115l23 -76l-326 -102l207 -273l-66 -47l-194 285l-199 -285l-63 47l207 273z" />
<glyph unicode="+" d="M111 545v82h464v465h78v-465h465v-82h-465v-463h-78v463h-464z" />
<glyph unicode="," horiz-adv-x="438" d="M145 -162q39 43 52.5 81t15.5 81h-63v145h139v-114q0 -145 -90 -234z" />
<glyph unicode="-" horiz-adv-x="860" d="M158 508v80h544v-80h-544z" />
<glyph unicode="." horiz-adv-x="438" d="M150 0v145h139v-145h-139z" />
<glyph unicode="/" horiz-adv-x="530" d="M-43 -106l520 1634h96l-522 -1634h-94z" />
<glyph unicode="0" d="M123 729q0 367 125 556.5t366 189.5q244 0 368 -187.5t124 -556.5q0 -367 -125 -557t-367 -190q-241 0 -366 189t-125 556zM215 731q0 -336 98.5 -499.5t300.5 -163.5q203 0 301.5 162.5t98.5 500.5t-97.5 499t-302.5 161q-203 0 -301 -162t-98 -498z" />
<glyph unicode="1" d="M291 0v78h325v1255l-303 -203v99l303 203v14l9 -8l30 20h47v-1380h324v-78h-735z" />
<glyph unicode="2" d="M158 1282q86 88 213 140.5t254 52.5q186 0 293.5 -99.5t107.5 -271.5q0 -125 -59.5 -246t-192.5 -270l-463 -510h783v-78h-904v66l525 591q119 133 170 236.5t51 208.5q0 139 -80 215t-227 76q-115 0 -219.5 -45t-208.5 -138z" />
<glyph unicode="3" d="M135 178l43 72q102 -92 209 -137t227 -45q166 0 259.5 82.5t93.5 236.5q0 156 -97.5 234.5t-285.5 78.5h-146v82h115q180 0 280.5 87t100.5 245q0 133 -80 206t-225 73q-113 0 -217.5 -45t-210.5 -138l-43 72q86 92 210 142.5t259 50.5q182 0 290.5 -97.5t108.5 -265.5 q0 -129 -63.5 -225t-171.5 -137q131 -37 198.5 -128.5t67.5 -228.5q0 -188 -121 -297.5t-324 -109.5q-137 0 -262 50t-215 142z" />
<glyph unicode="4" d="M119 344v68l719 1046h73v-1034h232v-80h-232v-344h-86v344h-653l-2 -4v4h-51zM227 424h598v864z" />
<glyph unicode="5" d="M186 178l43 72q205 -182 426 -182q168 0 267.5 102t99.5 272q0 166 -97.5 269.5t-254.5 103.5q-125 0 -213 -50t-154 -157h-82v850h840v-80h-752v-641q59 78 150.5 120t202.5 42q208 0 329 -126t121 -333q0 -131 -55.5 -234.5t-158.5 -161.5t-243 -58q-129 0 -254 51 t-215 141z" />
<glyph unicode="6" d="M131 684q0 377 140.5 584t394.5 207q123 0 237.5 -50.5t206.5 -142.5l-43 -72q-104 94 -201.5 138.5t-201.5 44.5q-209 0 -327 -188.5t-118 -522.5v-76q47 135 164 213t268 78q137 0 241.5 -57.5t162 -161t57.5 -238.5q0 -131 -58.5 -234.5t-160.5 -162.5t-234 -59 q-254 0 -391 182t-137 518zM272 442q0 -168 106.5 -272t278.5 -104q164 0 264.5 103t100.5 273q0 168 -102.5 270.5t-266.5 102.5q-111 0 -197.5 -47t-135 -132t-48.5 -194z" />
<glyph unicode="7" d="M156 1380v78h915v-63l-700 -1395h-95l699 1380h-819z" />
<glyph unicode="8" d="M113 381q0 133 81.5 230.5t223.5 136.5q-133 39 -203 128t-70 214q0 115 58.5 202.5t165 135t245.5 47.5t246 -47.5t165 -135.5t58 -202q0 -123 -70.5 -213.5t-201.5 -128.5q145 -37 225 -134.5t80 -232.5q0 -184 -134 -289.5t-368 -105.5q-233 0 -367 105.5t-134 289.5z M205 383q0 -154 104.5 -234.5t304.5 -80.5q201 0 305.5 80.5t104.5 234.5q0 139 -112.5 222t-297.5 97q-184 -14 -296.5 -97t-112.5 -222zM238 1090q0 -132 102 -214.5t274 -99.5q172 16 274.5 99t102.5 215q0 141 -98 222t-279 81q-180 0 -278 -81t-98 -222z" />
<glyph unicode="9" d="M119 1018q0 131 58.5 234.5t161.5 163t232 59.5q254 0 391.5 -182.5t137.5 -518.5q0 -377 -140.5 -583.5t-394.5 -206.5q-123 0 -237.5 50t-206.5 142l43 72q106 -94 202.5 -138t200.5 -44q209 0 327 188t118 522v78q-47 -137 -164 -215t-268 -78q-137 0 -242 57.5 t-162 161t-57 238.5zM209 1016q0 -168 102.5 -270.5t266.5 -102.5q110 0 197 47t135 132t48 194q0 168 -106.5 272.5t-276.5 104.5q-164 0 -265 -103.5t-101 -273.5z" />
<glyph unicode=":" horiz-adv-x="438" d="M150 0v145h139v-145h-139zM150 856v145h139v-145h-139z" />
<glyph unicode=";" horiz-adv-x="438" d="M145 -162q39 43 52.5 81t15.5 81h-63v145h139v-114q0 -145 -90 -234zM150 856v145h139v-145h-139z" />
<glyph unicode="&#x3c;" d="M111 549v74l1007 479v-88l-905 -426l905 -428v-92z" />
<glyph unicode="=" d="M111 338v82h1007v-82h-1007zM111 752v82h1007v-82h-1007z" />
<glyph unicode="&#x3e;" d="M111 68v92l905 428l-905 426v88l1007 -479v-74z" />
<glyph unicode="?" horiz-adv-x="886" d="M178 1307v94q64 35 137.5 53.5t141.5 18.5q164 0 264 -84t100 -224q0 -109 -45 -191.5t-137 -197.5q-92 -113 -143.5 -205t-61.5 -215l-2 -20h-53v22q0 141 50 242.5t144 224.5q80 106 118 178t38 162q0 102 -72.5 164t-197.5 62q-139 0 -281 -84zM336 0v145h139v-145 h-139z" />
<glyph unicode="@" horiz-adv-x="1900" d="M113 573q0 264 112.5 468t308 315.5t437.5 111.5q262 0 447.5 -112.5t278.5 -285.5t93 -355q0 -215 -63.5 -345t-156.5 -183.5t-190 -53.5q-113 0 -171 48t-60 143h-4q-51 -88 -134 -139.5t-186 -51.5q-127 0 -210 92t-83 262q0 139 54.5 264.5t154 202t230.5 76.5 q106 0 183 -53t93 -133h2l25 157h88l-105 -600q-6 -37 -6 -67q0 -72 37 -98.5t109 -26.5q70 0 139.5 49t117.5 163t48 294q0 158 -80 311.5t-246 253.5t-405 100q-217 0 -394.5 -99t-278.5 -282.5t-101 -425.5q0 -240 93 -418t268 -275t415 -97q186 0 324.5 57.5 t213.5 159.5h119q-92 -143 -263 -224t-394 -81q-260 0 -454.5 109.5t-300 308t-105.5 460.5zM612 498q0 -141 66.5 -215t163.5 -74q114 0 199 68.5t129 178t44 230.5q0 129 -65.5 197.5t-173.5 68.5q-109 0 -192 -65.5t-127 -170t-44 -218.5z" />
<glyph unicode="A" horiz-adv-x="1476" d="M70 0l626 1458h84l627 -1458h-92l-174 403h-807l-172 -403h-92zM369 485h737l-369 861z" />
<glyph unicode="B" horiz-adv-x="1376" d="M199 0v1458h538q221 0 341 -98t120 -285q0 -119 -60.5 -203t-170.5 -124q125 -33 194.5 -124.5t69.5 -228.5q0 -195 -122 -295t-349 -100h-561zM285 80h473q194 0 287.5 74.5t93.5 230.5q0 313 -381 313h-473v-618zM285 782h442q186 0 282.5 78t96.5 227q0 291 -379 291 h-442v-596z" />
<glyph unicode="C" horiz-adv-x="1400" d="M139 731q0 231 79 398t224.5 256.5t345.5 89.5q307 0 496 -197l-43 -72q-109 98 -214 141.5t-241 43.5q-264 0 -410.5 -173.5t-146.5 -486.5q0 -315 145.5 -489t411.5 -174q135 0 241 43t214 141l43 -72q-187 -196 -493 -196h-3q-200 0 -345.5 89t-224.5 258t-79 400z " />
<glyph unicode="D" horiz-adv-x="1501" d="M199 0v1458h448q344 0 529.5 -188.5t185.5 -538.5t-186.5 -540.5t-528.5 -190.5h-448zM283 78h362q309 0 466 165t157 488q0 324 -157 486.5t-466 162.5h-362v-1302z" />
<glyph unicode="E" horiz-adv-x="1191" d="M199 0v1458h876v-80h-790v-598h749v-82h-749v-618h790v-80h-876z" />
<glyph unicode="F" horiz-adv-x="1134" d="M199 0v1458h856v-80h-772v-598h731v-80h-731v-700h-84z" />
<glyph unicode="G" horiz-adv-x="1480" d="M139 731q0 233 79 400t227.5 255.5t353.5 88.5q305 0 489 -197l-43 -72q-106 98 -212.5 141.5t-239.5 43.5q-268 0 -416 -172t-148 -488q0 -322 149.5 -493.5t428.5 -171.5q113 0 220.5 20t191.5 55v510h-404v84h483v-653q-76 -43 -213 -70.5t-278 -27.5 q-209 0 -359.5 89t-229.5 257t-79 401z" />
<glyph unicode="H" horiz-adv-x="1554" d="M199 0v1458h86v-678h981v-80h-981v-700h-86zM1268 0v1458h88v-1458h-88z" />
<glyph unicode="I" horiz-adv-x="481" d="M199 0v1458h84v-1458h-84z" />
<glyph unicode="J" horiz-adv-x="614" d="M-16 -281q86 -18 147 -18q109 0 155 66.5t46 222.5v1468h84v-1472q0 -197 -65.5 -282t-213.5 -85q-61 0 -153 16v84z" />
<glyph unicode="K" horiz-adv-x="1239" d="M199 0v1458h84v-682l774 682h123l-809 -717l856 -741h-127l-817 705v-705h-84z" />
<glyph unicode="L" horiz-adv-x="1089" d="M199 0v1458h84v-1380h776v-78h-860z" />
<glyph unicode="M" horiz-adv-x="1736" d="M199 0v1458h73l598 -1358l594 1358h74v-1458h-84l2 1249l-551 -1249h-69l-555 1239l2 -1239h-84z" />
<glyph unicode="N" horiz-adv-x="1513" d="M199 0v1458h71l965 -1308v1308h80v-1458h-70l-966 1313v-1313h-80z" />
<glyph unicode="O" horiz-adv-x="1554" d="M139 729q0 229 77 397t220.5 258.5t339.5 90.5q197 0 341.5 -90.5t221 -257t76.5 -396.5q0 -229 -76.5 -398t-221 -259t-341.5 -90q-194 0 -338.5 90t-221.5 258t-77 397zM231 731q0 -313 143.5 -488t401.5 -175t401.5 174t143.5 489t-142.5 487.5t-402.5 172.5 t-402.5 -173.5t-142.5 -486.5z" />
<glyph unicode="P" horiz-adv-x="1306" d="M199 0v1458h538q215 0 338 -104.5t123 -288.5t-124 -290.5t-337 -106.5h-454v-668h-84zM283 752h452q180 0 275.5 81.5t95.5 231.5t-95.5 231.5t-275.5 81.5h-452v-626z" />
<glyph unicode="Q" horiz-adv-x="1554" d="M139 729q0 229 77 397t220.5 258.5t339.5 90.5q197 0 341.5 -90.5t221 -257t76.5 -396.5q0 -287 -118.5 -476t-333.5 -247q102 -184 266 -323l-60 -76q-76 59 -158.5 162.5t-148.5 216.5q-57 -4 -86 -4q-195 0 -339 90t-221 258t-77 397zM231 731q0 -313 143.5 -488 t401.5 -175t401.5 174t143.5 489t-142.5 487.5t-402.5 172.5t-402.5 -173.5t-142.5 -486.5z" />
<glyph unicode="R" horiz-adv-x="1400" d="M199 0v1458h542q225 0 348 -101.5t123 -291.5q0 -141 -74.5 -235.5t-211.5 -131.5q63 -10 108 -54t74 -128l188 -516h-88l-178 485q-39 106 -103.5 142.5t-191.5 36.5h-452v-664h-84zM285 745h458q186 0 281.5 82t95.5 240q0 311 -377 311h-458v-633z" />
<glyph unicode="S" horiz-adv-x="1236" d="M106 180l44 72q109 -100 219 -142t268 -42q195 0 302.5 82.5t107.5 232.5q0 86 -53.5 140.5t-132.5 82t-210 58.5q-174 41 -271 75.5t-173 114.5t-76 217q0 121 61.5 212t175 141.5t267.5 50.5q303 0 489 -197l-43 -72q-104 96 -210.5 140.5t-235.5 44.5 q-197 0 -306.5 -85t-109.5 -239q0 -131 95.5 -194.5t267.5 -106.5l92 -23q150 -35 242 -68.5t156.5 -105t64.5 -192.5q0 -115 -61.5 -204t-175.5 -139t-263 -50q-172 0 -300 47t-231 149z" />
<glyph unicode="T" horiz-adv-x="1208" d="M25 1380v78h1159v-78h-539v-1380h-84v1380h-536z" />
<glyph unicode="U" horiz-adv-x="1478" d="M188 553v905h84v-919q0 -471 469 -471q229 0 347 118.5t118 352.5v919h86v-905q0 -281 -140 -425t-411 -144q-272 0 -412.5 144t-140.5 425z" />
<glyph unicode="V" horiz-adv-x="1386" d="M25 1458h90l579 -1347l578 1347h92l-629 -1458h-86z" />
<glyph unicode="W" horiz-adv-x="2260" d="M86 1458h86l459 -1335l461 1335l75 -2l459 -1331l461 1333h88l-506 -1458h-80l-459 1317l-460 -1317h-78z" />
<glyph unicode="X" horiz-adv-x="1302" d="M49 0l555 752l-522 706h102l471 -641l467 641h101l-521 -710l551 -748h-100l-500 682l-499 -682h-105z" />
<glyph unicode="Y" horiz-adv-x="1202" d="M2 1458h102l498 -768l498 768h98l-555 -852v-606h-86v610z" />
<glyph unicode="Z" horiz-adv-x="1198" d="M86 0v63l909 1315h-909v80h965l2 4v-4h45v-63l-905 -1315h925v-80h-981l-2 -4v4h-49z" />
<glyph unicode="[" horiz-adv-x="581" d="M231 -373v1831h342v-76h-254v-1677h254v-78h-342z" />
<glyph unicode="\" horiz-adv-x="530" d="M-43 1528h94l522 -1634h-96z" />
<glyph unicode="]" horiz-adv-x="581" d="M8 -295h254v1677h-254v76h342v-1831h-342v78z" />
<glyph unicode="^" d="M100 289l478 1009h73l479 -1009h-88l-428 903l-428 -903h-86z" />
<glyph unicode="_" horiz-adv-x="1034" d="M8 0h1018v-68h-1018v68z" />
<glyph unicode="`" horiz-adv-x="614" d="M12 1550h129l207 -413h-76z" />
<glyph unicode="a" horiz-adv-x="1193" d="M111 514q0 160 57 280.5t160.5 187.5t238.5 67q129 0 222.5 -55.5t138.5 -162.5v193h86v-1024h-86v205q-45 -106 -138.5 -162.5t-222.5 -56.5q-137 0 -240.5 64.5t-159.5 184t-56 279.5zM203 514q0 -211 97 -327.5t269 -116.5q170 0 264.5 117.5t94.5 330.5 q0 215 -94.5 331t-266.5 116t-268 -119t-96 -332z" />
<glyph unicode="b" horiz-adv-x="1193" d="M180 0v1507h84v-686q45 111 138.5 169.5t224.5 58.5q135 0 239.5 -64.5t160.5 -184.5t56 -278q0 -160 -57 -281.5t-160.5 -188t-238.5 -66.5q-131 0 -222.5 57t-138.5 166v-209h-86zM266 518q0 -215 93.5 -331.5t269.5 -116.5q170 0 265 119.5t95 332.5q0 211 -95 327 t-267 116q-174 0 -267.5 -116t-93.5 -331z" />
<glyph unicode="c" horiz-adv-x="997" d="M111 514q0 158 58 279.5t164.5 188.5t248.5 67q102 0 194 -37t154 -101l-41 -73q-84 68 -155.5 98.5t-151.5 30.5q-176 0 -277.5 -122t-101.5 -333q0 -209 100 -325.5t277 -116.5q80 0 152.5 29.5t156.5 97.5l41 -72q-66 -66 -159 -102.5t-191 -36.5q-142 0 -247.5 65.5 t-163.5 185t-58 277.5z" />
<glyph unicode="d" horiz-adv-x="1193" d="M111 522q0 158 56 278t159.5 184.5t240.5 64.5q129 0 222.5 -55.5t138.5 -162.5v676h86v-1507h-86v205q-45 -106 -138.5 -162.5t-222.5 -56.5q-135 0 -238.5 66.5t-160.5 188t-57 281.5zM203 522q0 -213 97 -332.5t267 -119.5q172 0 266.5 117.5t94.5 330.5t-94.5 330 t-264.5 117q-172 0 -269 -116t-97 -327z" />
<glyph unicode="e" horiz-adv-x="1107" d="M111 516q0 158 59 278.5t166.5 187.5t247.5 67q197 0 308.5 -129t111.5 -361v-24h-797v-19q0 -215 101.5 -330.5t289.5 -115.5q96 0 180 31.5t166 101.5l41 -74q-66 -66 -169 -104.5t-214 -38.5q-227 0 -359 141t-132 389zM213 618h705q-12 170 -98.5 261.5t-235.5 91.5 q-152 0 -249 -93.5t-122 -259.5z" />
<glyph unicode="f" horiz-adv-x="636" d="M16 950v74h205v209q0 143 69.5 213t190.5 70q57 0 119 -17v-84q-55 16 -108 17q-91 0 -138 -48.5t-47 -177.5v-182h273v-74h-273v-950h-86v950h-205z" />
<glyph unicode="g" horiz-adv-x="1202" d="M111 541q0 150 58 265.5t162.5 179t239.5 63.5q131 0 224.5 -55.5t140.5 -162.5v193h86v-1038q0 -219 -103.5 -331t-306.5 -112q-229 0 -393 115l19 82q102 -61 184 -87t194 -26q158 0 240 89t82 259v281q-45 -111 -139 -168t-228 -57q-135 0 -239.5 64.5t-162.5 180 t-58 265.5zM203 541q0 -199 98 -311.5t270 -112.5q170 0 267.5 113.5t97.5 310.5q0 199 -97.5 311.5t-267.5 112.5q-172 0 -270 -113t-98 -311z" />
<glyph unicode="h" horiz-adv-x="1167" d="M180 0v1507h84v-667q45 102 139.5 155.5t217.5 53.5q372 -1 372 -390v-659h-86v651q0 164 -66.5 240t-211.5 76q-166 0 -265.5 -100.5t-99.5 -270.5v-596h-84z" />
<glyph unicode="i" horiz-adv-x="446" d="M157 1303v131h133v-131h-133zM180 0v1024h84v-1024h-84z" />
<glyph unicode="j" horiz-adv-x="446" d="M-100 -346q53 -19 100 -19q84 0 132 49.5t48 178.5v1161h84v-1188q0 -143 -68.5 -212.5t-185.5 -69.5q-43 0 -110 14v86zM157 1303v131h133v-131h-133z" />
<glyph unicode="k" horiz-adv-x="987" d="M180 0v1507h84v-964l541 481h121l-559 -492l622 -532h-127l-598 508v-508h-84z" />
<glyph unicode="l" horiz-adv-x="446" d="M180 0v1507h84v-1507h-84z" />
<glyph unicode="m" horiz-adv-x="1761" d="M164 1024h82l14 -193q41 104 126 161t200 57q250 0 319 -203q43 96 134 149.5t210 53.5q338 -1 338 -390v-659h-86v651q0 164 -59.5 240t-188.5 76q-150 0 -237.5 -100.5t-87.5 -270.5v-596h-86v651q0 164 -59.5 240t-190.5 76q-152 0 -240 -100.5t-88 -270.5v-596h-84 v741q0 160 -16 283z" />
<glyph unicode="n" horiz-adv-x="1167" d="M164 1024h82l14 -195q43 106 139.5 163t221.5 57q372 -1 372 -390v-659h-86v651q0 164 -66.5 240t-211.5 76q-166 0 -265.5 -100.5t-99.5 -270.5v-596h-84v741q0 160 -16 283z" />
<glyph unicode="o" horiz-adv-x="1132" d="M111 518q0 160 56 280t160.5 185.5t239.5 65.5t238.5 -65.5t160 -185.5t56.5 -280t-56.5 -280.5t-160 -186t-238.5 -65.5t-239.5 65.5t-160.5 186t-56 280.5zM203 518q0 -217 94 -332.5t268 -115.5t269.5 116.5t95.5 331.5q0 209 -96.5 328t-266.5 119t-267 -118 t-97 -329z" />
<glyph unicode="p" horiz-adv-x="1193" d="M164 1024h82l16 -209q43 113 137.5 173.5t227.5 60.5q135 0 238.5 -67t160.5 -187.5t57 -280.5t-56 -278.5t-160.5 -184t-239.5 -65.5q-133 0 -225.5 58t-137.5 171v-657h-84v1183q0 160 -16 283zM266 518q0 -215 93.5 -331.5t267.5 -116.5q172 0 267 116.5t95 327.5 q0 213 -95 332t-265 119q-176 0 -269.5 -116t-93.5 -331z" />
<glyph unicode="q" horiz-adv-x="1193" d="M111 514q0 160 57 280.5t160.5 187.5t238.5 67q131 0 224.5 -58.5t140.5 -167.5l18 201h78q-14 -129 -14 -283v-1183h-86v647q-45 -106 -138.5 -162.5t-222.5 -56.5q-137 0 -240.5 64.5t-159.5 184t-56 279.5zM203 514q0 -211 97 -327.5t269 -116.5q170 0 264.5 117.5 t94.5 330.5q0 215 -94.5 331t-266.5 116t-268 -119t-96 -332z" />
<glyph unicode="r" horiz-adv-x="688" d="M164 1024h82l14 -193q41 106 128 162t200 56q57 -1 86 -7l-6 -77q-25 4 -82 4q-113 0 -184.5 -52.5t-104.5 -133.5t-33 -169v-614h-84v741q0 160 -16 283z" />
<glyph unicode="s" horiz-adv-x="1007" d="M119 125l39 72q82 -70 160.5 -97.5t187.5 -27.5q137 0 208.5 48t71.5 140q0 74 -47 118t-151 71l-174 40q-117 27 -188.5 101t-71.5 168q0 131 99 211t267 80q109 0 200 -36t146 -102l-41 -73q-70 63 -143.5 95t-161.5 32q-129 0 -199.5 -51.5t-70.5 -143.5 q0 -78 45 -125t139 -70l176 -43q135 -31 203 -98t68 -168q0 -125 -103.5 -202.5t-277.5 -77.5q-242 0 -381 139z" />
<glyph unicode="t" horiz-adv-x="663" d="M16 950v74h205v279l86 36v-315h311v-74h-311v-653q0 -131 48 -179t143 -48q61 0 114 18v-84q-61 -16 -123 -16q-123 0 -195.5 68.5t-72.5 211.5v682h-205z" />
<glyph unicode="u" horiz-adv-x="1148" d="M174 377v647h84v-639q0 -162 66.5 -238.5t203.5 -76.5q162 0 259.5 101t97.5 269v584h84v-1024h-82v195q-49 -100 -142.5 -154.5t-209.5 -54.5q-176 0 -268.5 99t-92.5 292z" />
<glyph unicode="v" horiz-adv-x="1064" d="M49 1024h92l394 -946l395 946h88l-436 -1024h-101z" />
<glyph unicode="w" horiz-adv-x="1755" d="M86 1024h94l314 -924l333 924h107l323 -922l324 922h90l-362 -1024h-103l-327 920l-330 -920h-105z" />
<glyph unicode="x" horiz-adv-x="1069" d="M61 0l420 528l-399 496h113l340 -426l339 426h113l-395 -496l416 -528h-109l-364 455l-363 -455h-111z" />
<glyph unicode="y" horiz-adv-x="1064" d="M49 1024h92l394 -946l395 946h88l-483 -1141q-70 -164 -172.5 -239.5t-256.5 -108.5l-16 70q147 35 225 92t129 182l43 109z" />
<glyph unicode="z" horiz-adv-x="1048" d="M104 0v57l715 893h-684v74h791v-70l-703 -878h727v-76h-846z" />
<glyph unicode="{" horiz-adv-x="657" d="M113 526v37l39 6q88 14 121.5 55.5t33.5 125.5v475q0 111 63.5 172t164.5 61h114v-76h-123q-63 0 -97 -38.5t-34 -114.5v-481q0 -91 -40 -141t-99 -62q59 -14 99 -64.5t40 -138.5v-485q0 -74 34 -113t97 -39h123v-78h-114q-113 0 -170.5 60.5t-57.5 173.5v479 q0 82 -34.5 123t-120.5 55z" />
<glyph unicode="|" horiz-adv-x="507" d="M209 -373v1831h90v-1831h-90z" />
<glyph unicode="}" horiz-adv-x="659" d="M8 -295h123q63 0 97 39t34 113v485q0 88 40 138t101 65q-59 12 -100 62t-41 141v481q0 76 -33.5 114.5t-97.5 38.5h-123v76h117q98 0 161.5 -61.5t63.5 -171.5v-475q0 -84 35 -125t123 -56l39 -6v-37l-39 -8q-88 -14 -123 -55t-35 -123v-479q0 -113 -57 -173.5 t-168 -60.5h-117v78z" />
<glyph unicode="~" d="M111 524q82 188 258 189q70 0 131 -24.5t155 -76.5q78 -41 119 -58t82 -17q72 0 116 37.5t75 103.5l71 -31q-43 -94 -105.5 -142t-152.5 -48q-70 0 -131 24.5t-156 75.5q-72 41 -115.5 59.5t-84.5 18.5q-72 0 -116 -39t-75 -104z" />
<glyph unicode="&#xa1;" horiz-adv-x="438" d="M150 856v145h139v-145h-139zM164 -373l26 1041h56l26 -1041h-108z" />
<glyph unicode="&#xa2;" d="M203 514q0 219 111.5 362.5t295.5 167.5v234h84v-229q96 -4 184.5 -40t145.5 -98l-39 -73q-82 63 -150.5 95t-140.5 34v-897q74 4 141.5 33.5t149.5 93.5l39 -72q-59 -61 -146 -98t-184 -41v-230h-84v234q-184 23 -295.5 165t-111.5 359zM295 512q0 -186 84 -301 t231 -137v889q-147 -23 -231 -143t-84 -308z" />
<glyph unicode="&#xa3;" d="M100 0v61q123 57 177.5 132t54.5 190v305h-232v84h232v313q0 182 97 286t271 104q125 0 240 -50.5t207 -146.5l-45 -72q-84 90 -188.5 138.5t-217.5 48.5q-133 0 -205.5 -82t-72.5 -234v-305h395v-84h-395v-264q0 -141 -37 -220t-125 -126h887v-78h-1043z" />
<glyph unicode="&#xa4;" d="M117 70l112 116q-109 141 -108 320q0 178 108 319l-112 119l71 74l111 -117q66 57 147.5 88t169.5 31q86 0 166 -29.5t144 -83.5l108 111l74 -74l-109 -113q113 -143 113 -325q0 -90 -29.5 -173t-83.5 -151l109 -112l-74 -74l-108 110q-63 -53 -143.5 -82.5t-166.5 -29.5 q-88 0 -168.5 30.5t-146.5 86.5l-113 -115zM209 506q0 -117 54 -216.5t147.5 -157.5t203.5 -58q111 0 204 58t147.5 156.5t54.5 217.5t-54.5 218t-147.5 156.5t-204 57.5t-204 -58.5t-147 -156.5t-54 -217z" />
<glyph unicode="&#xa5;" d="M4 1458h105l501 -682h11l499 682h105l-504 -682h356v-84h-420v-227h420v-82h-420v-383h-86v383h-419v82h419v227h-419v84h358z" />
<glyph unicode="&#xa6;" horiz-adv-x="507" d="M209 319h90v-692h-90v692zM209 768v690h90v-690h-90z" />
<glyph unicode="&#xa7;" horiz-adv-x="1060" d="M96 721q0 70 30 139.5t79 114.5q-25 59 -25 153q0 156 100.5 250.5t266.5 94.5q90 0 180 -38t143 -100l-41 -73q-80 66 -150.5 96.5t-137.5 30.5q-133 0 -204 -69t-71 -196q0 -100 48 -165.5t169 -129.5l160 -84q178 -94 250 -179t72 -201q0 -68 -31 -134.5t-80 -113.5 q29 -66 29 -160q0 -154 -99.5 -249t-261.5 -95q-227 0 -383 135l41 74q88 -68 166 -95.5t176 -27.5q131 0 202 68.5t71 193.5q0 102 -49.5 170t-167.5 127l-160 84q-176 88 -249 174t-73 205zM188 709q0 -76 54.5 -136.5t193.5 -138.5l146 -80q157 -88 225 -164 q66 78 65 187q0 78 -54 138t-193 136l-148 82q-162 86 -225 162q-63 -76 -64 -186z" />
<glyph unicode="&#xa8;" horiz-adv-x="614" d="M79 1282v125h127v-125h-127zM413 1282v125h127v-125h-127z" />
<glyph unicode="&#xa9;" horiz-adv-x="1685" d="M104 731q0 207 97.5 375t266.5 265t376 97t376 -97t266 -266t97 -374q0 -207 -97 -376t-267 -267t-375 -98t-375 98t-267.5 267t-97.5 376zM180 731q0 -186 87 -339.5t239.5 -242t337.5 -88.5q184 0 335.5 88.5t238.5 242t87 339.5t-87 338t-238.5 240t-335.5 88 t-337 -88t-240 -239.5t-87 -338.5zM449 731q0 205 108.5 325t294.5 120q84 0 165 -32t140 -87l-39 -66q-72 57 -134 82t-136 25q-147 0 -226 -94.5t-79 -272.5q0 -180 78.5 -275.5t226.5 -95.5q74 0 136.5 25t133.5 82l39 -66q-59 -55 -140 -86.5t-165 -31.5 q-186 0 -294.5 120.5t-108.5 327.5z" />
<glyph unicode="&#xaa;" horiz-adv-x="671" d="M76 1026q0 70 34.5 107.5t114.5 54t224 16.5h26v41q0 82 -32.5 117t-100.5 35q-109 0 -207 -70l-35 66q49 33 112.5 54t127.5 21q223 0 223 -231v-379h-88v92q-27 -47 -75 -74.5t-107 -27.5q-92 0 -154.5 52t-62.5 126zM170 1036q0 -49 36 -82.5t91 -33.5q76 0 127 51 t51 137v39h-22q-119 0 -179.5 -12.5t-82 -35t-21.5 -63.5z" />
<glyph unicode="&#xab;" horiz-adv-x="815" d="M59 547l271 368h96l-262 -366l254 -367h-92zM387 547l271 368h96l-262 -366l254 -367h-92z" />
<glyph unicode="&#xac;" d="M111 766v80h1007v-518h-74v438h-933z" />
<glyph unicode="&#xad;" horiz-adv-x="860" d="M158 508v80h544v-80h-544z" />
<glyph unicode="&#xae;" horiz-adv-x="1685" d="M104 731q0 207 97.5 375t266.5 265t376 97t376 -97t266 -266t97 -374q0 -207 -97 -376t-267 -267t-375 -98t-375 98t-267.5 267t-97.5 376zM180 731q0 -186 87 -339.5t239.5 -242t337.5 -88.5q184 0 335.5 88.5t238.5 242t87 339.5t-87 338t-238.5 240t-335.5 88 t-337 -88t-240 -239.5t-87 -338.5zM561 293v872h338q135 0 210 -65.5t75 -184.5q0 -104 -61.5 -166.5t-174.5 -74.5q56 -16 103 -92l184 -289h-96l-176 278q-35 53 -72 73t-103 20h-141v-371h-86zM647 743h242q106 0 156.5 42t50.5 130q0 90 -50.5 132.5t-156.5 42.5h-242 v-347z" />
<glyph unicode="&#xaf;" horiz-adv-x="614" d="M8 1300v91h604v-91h-604z" />
<glyph unicode="&#xb0;" horiz-adv-x="753" d="M84 1176q0 82 39 148.5t106.5 105t147.5 38.5t146.5 -38.5t104.5 -105.5t38 -148q0 -82 -38 -150t-104.5 -106.5t-146.5 -38.5q-82 0 -148.5 38.5t-105.5 106.5t-39 150zM174 1176q0 -94 56.5 -152.5t146.5 -58.5t146.5 58t56.5 153q0 92 -57.5 151t-145.5 59 q-90 0 -146.5 -59t-56.5 -151z" />
<glyph unicode="&#xb1;" d="M111 0v82h1007v-82h-1007zM111 623v79h464v390h78v-390h465v-79h-465v-390h-78v390h-464z" />
<glyph unicode="&#xb2;" horiz-adv-x="778" d="M84 1348q61 53 140 86t163 33q119 0 184.5 -63.5t65.5 -164.5q0 -74 -35 -145.5t-108 -151.5l-258 -282h438v-76h-555v66l305 344q63 70 94 127t31 116q0 74 -43 114t-117 40q-55 0 -121.5 -28.5t-126.5 -78.5z" />
<glyph unicode="&#xb3;" horiz-adv-x="778" d="M74 699l57 61q59 -49 125 -76.5t121 -27.5q86 0 138 41t52 127q0 168 -209 168h-98v73h78q96 0 151.5 44t55.5 128q0 74 -44 114t-114 40q-121 0 -246 -107l-57 64q61 53 140 86t163 33q117 0 182.5 -61.5t65.5 -162.5q0 -76 -40 -130t-101 -80q75 -21 116 -74t41 -137 q0 -117 -75.5 -180.5t-198.5 -63.5q-86 0 -165 33.5t-138 87.5z" />
<glyph unicode="&#xb4;" horiz-adv-x="614" d="M272 1137l207 413h129l-260 -413h-76z" />
<glyph unicode="&#xb5;" horiz-adv-x="1148" d="M174 -442v1466h84v-639q0 -162 66.5 -238.5t203.5 -76.5q162 0 259.5 101t97.5 269v584h84v-1024h-82v195q-49 -100 -142.5 -154.5t-209.5 -54.5q-182 0 -277 96v-524h-84z" />
<glyph unicode="&#xb6;" horiz-adv-x="1148" d="M109 1075q0 111 47 198t134 136t204 49h456v-1831h-100v1739h-258v-1739h-103v1065q-115 0 -200.5 49.5t-132.5 137.5t-47 196z" />
<glyph unicode="&#xb7;" horiz-adv-x="438" d="M150 475v146h139v-146h-139z" />
<glyph unicode="&#xb8;" horiz-adv-x="614" d="M156 -354l28 71q66 -29 152 -28q61 0 93 22.5t32 61.5q0 31 -18.5 47t-55.5 16q-49 0 -106 -22l-39 28l20 199h88l-12 -133q27 8 61 8q58 0 104 -36t46 -107q0 -74 -58.5 -120t-158.5 -46q-45 0 -93.5 9t-82.5 30z" />
<glyph unicode="&#xb9;" horiz-adv-x="778" d="M246 584v76h153v694l-143 -96v100l154 100h71v-798h152v-76h-387z" />
<glyph unicode="&#xba;" horiz-adv-x="671" d="M53 1159q0 143 77 226t204 83t204.5 -82.5t77.5 -226.5q0 -143 -77.5 -227t-204.5 -84t-204 84t-77 227zM145 1159q0 -238 189 -237q96 0 144 60t48 177q0 113 -49 175.5t-143 62.5q-92 0 -140.5 -62.5t-48.5 -175.5z" />
<glyph unicode="&#xbb;" horiz-adv-x="815" d="M61 915h97l270 -368l-266 -365h-94l256 367zM389 915h97l270 -368l-266 -365h-94l256 367z" />
<glyph unicode="&#xbc;" horiz-adv-x="1884" d="M246 584v75h153v695l-143 -97v101l154 100h71v-799h152v-75h-387zM467 -2l872 1505l76 -43l-868 -1505zM1194 195v67l422 612h76v-604h131v-75h-131v-195h-94v195h-404zM1292 270h306v443z" />
<glyph unicode="&#xbd;" horiz-adv-x="1884" d="M246 584v75h153v695l-143 -97v101l154 100h71v-799h152v-75h-387zM467 -2l872 1505l76 -43l-868 -1505zM1190 764q61 53 140 86t163 33q119 0 184.5 -63.5t65.5 -164.5q0 -74 -35 -145.5t-108 -151.5l-258 -282h438v-76h-555v66l305 344q63 70 94 127t31 116 q0 74 -43 114t-117 40q-55 0 -121.5 -28.5t-126.5 -78.5z" />
<glyph unicode="&#xbe;" horiz-adv-x="1884" d="M74 698l57 62q59 -49 125 -77t121 -28q86 0 138 41t52 127q0 168 -209 168h-98v74h78q96 0 151.5 44t55.5 128q0 74 -44 114t-114 40q-121 0 -246 -107l-57 64q61 53 140 85.5t163 32.5q117 0 182.5 -61.5t65.5 -161.5q0 -76 -40 -130t-101 -81q75 -20 116 -73.5 t41 -137.5q0 -117 -75.5 -180t-198.5 -63q-86 0 -165 33.5t-138 86.5zM467 -2l872 1505l76 -43l-868 -1505zM1194 195v67l422 612h76v-604h131v-75h-131v-195h-94v195h-404zM1292 270h306v443z" />
<glyph unicode="&#xbf;" horiz-adv-x="886" d="M63 -84q0 76 25 136.5t59.5 104.5t98.5 109q63 66 102 113t68.5 114.5t36.5 153.5v19h57v-23q0 -94 -26.5 -168t-65.5 -127t-103 -121q-82 -90 -120.5 -154.5t-38.5 -156.5q0 -98 74.5 -158.5t195.5 -60.5q141 0 283 82v-96q-133 -70 -279 -70q-164 0 -265.5 84 t-101.5 219zM410 856v145h143v-145h-143z" />
<glyph unicode="&#xc0;" horiz-adv-x="1476" d="M70 0l626 1458h84l627 -1458h-92l-174 403h-807l-172 -403h-92zM369 485h737l-369 861zM444 1890h125l207 -307h-76z" />
<glyph unicode="&#xc1;" horiz-adv-x="1476" d="M70 0l626 1458h84l627 -1458h-92l-174 403h-807l-172 -403h-92zM369 485h737l-369 861zM700 1583l207 307h125l-256 -307h-76z" />
<glyph unicode="&#xc2;" horiz-adv-x="1476" d="M70 0l626 1458h84l627 -1458h-92l-174 403h-807l-172 -403h-92zM369 485h737l-369 861zM469 1583l231 307h76l231 -307h-106l-162 234l-164 -234h-106z" />
<glyph unicode="&#xc3;" horiz-adv-x="1476" d="M70 0l626 1458h84l627 -1458h-92l-174 403h-807l-172 -403h-92zM369 485h737l-369 861zM419 1642q0 93 43 147t121 54q45 0 83 -17.5t97 -53.5q41 -27 69 -40.5t52 -13.5q51 0 78 36t25 83h69q0 -90 -43 -145.5t-121 -55.5q-45 0 -85.5 18.5t-94.5 53.5q-45 27 -71.5 39 t-49.5 12q-51 0 -77.5 -34.5t-24.5 -82.5h-70z" />
<glyph unicode="&#xc4;" horiz-adv-x="1476" d="M70 0l626 1458h84l627 -1458h-92l-174 403h-807l-172 -403h-92zM369 485h737l-369 861zM507 1677v125h127v-125h-127zM841 1677v125h127v-125h-127z" />
<glyph unicode="&#xc5;" horiz-adv-x="1476" d="M70 0l606 1409q-61 18 -99 68.5t-38 115.5q0 82 58 139.5t142 57.5q82 0 141.5 -57.5t59.5 -139.5q0 -66 -39 -116t-100 -68l606 -1409h-92l-174 403h-807l-172 -403h-92zM369 485h737l-369 861zM633 1593q0 -47 29.5 -78.5t76.5 -31.5q45 0 75 31.5t30 78.5t-30 78 t-75 31q-47 0 -76.5 -31t-29.5 -78z" />
<glyph unicode="&#xc6;" horiz-adv-x="2039" d="M29 0l868 1458h1026v-82h-825l59 -596h725v-82h-717l60 -616h698v-82h-766l-39 403h-758l-239 -403h-92zM408 485h702l-88 891h-86z" />
<glyph unicode="&#xc7;" horiz-adv-x="1400" d="M139 731q0 231 79 398t224.5 256.5t345.5 89.5q307 0 496 -197l-43 -72q-109 98 -214 141.5t-241 43.5q-264 0 -410.5 -173.5t-146.5 -486.5q0 -315 145.5 -489t411.5 -174q136 0 241.5 43t213.5 141l43 -72q-184 -190 -473 -196l-6 -76q27 8 61 8q57 0 103.5 -36 t46.5 -107q0 -74 -58.5 -120t-158.5 -46q-45 0 -93.5 9t-82.5 30l28 71q66 -29 152 -28q61 0 93 22.5t32 61.5q0 31 -18.5 47t-55.5 16q-49 0 -106 -22l-39 28l14 144q-180 14 -311 107t-202 256t-71 382z" />
<glyph unicode="&#xc8;" horiz-adv-x="1191" d="M199 0v1458h876v-80h-790v-598h749v-82h-749v-618h790v-80h-876zM367 1890h125l207 -307h-76z" />
<glyph unicode="&#xc9;" horiz-adv-x="1191" d="M199 0v1458h876v-80h-790v-598h749v-82h-749v-618h790v-80h-876zM623 1583l207 307h125l-256 -307h-76z" />
<glyph unicode="&#xca;" horiz-adv-x="1191" d="M199 0v1458h876v-80h-790v-598h749v-82h-749v-618h790v-80h-876zM392 1583l231 307h76l231 -307h-106l-162 234l-164 -234h-106z" />
<glyph unicode="&#xcb;" horiz-adv-x="1191" d="M199 0v1458h876v-80h-790v-598h749v-82h-749v-618h790v-80h-876zM430 1677v125h127v-125h-127zM764 1677v125h127v-125h-127z" />
<glyph unicode="&#xcc;" horiz-adv-x="481" d="M-53 1890h125l207 -307h-76zM199 0v1458h84v-1458h-84z" />
<glyph unicode="&#xcd;" horiz-adv-x="481" d="M199 0v1458h84v-1458h-84zM203 1583l207 307h125l-256 -307h-76z" />
<glyph unicode="&#xce;" horiz-adv-x="481" d="M-28 1583l231 307h76l231 -307h-106l-162 234l-164 -234h-106zM199 0v1458h84v-1458h-84z" />
<glyph unicode="&#xcf;" horiz-adv-x="481" d="M10 1677v125h127v-125h-127zM199 0v1458h84v-1458h-84zM344 1677v125h127v-125h-127z" />
<glyph unicode="&#xd0;" horiz-adv-x="1509" d="M8 702v78h199v678h448q344 0 529.5 -187.5t185.5 -539.5q0 -350 -186.5 -540.5t-528.5 -190.5h-448v702h-199zM293 78h360q310 0 466.5 165t156.5 488q0 324 -156.5 486.5t-466.5 162.5h-360v-600h405v-78h-405v-624z" />
<glyph unicode="&#xd1;" horiz-adv-x="1513" d="M199 0v1458h71l965 -1308v1308h80v-1458h-70l-966 1313v-1313h-80zM438 1642q0 93 43 147t121 54q45 0 83 -17.5t97 -53.5q41 -27 69 -40.5t52 -13.5q51 0 78 36t25 83h69q0 -90 -43 -145.5t-121 -55.5q-45 0 -85.5 18.5t-94.5 53.5q-45 27 -71.5 39t-49.5 12 q-51 0 -77.5 -34.5t-24.5 -82.5h-70z" />
<glyph unicode="&#xd2;" horiz-adv-x="1554" d="M139 729q0 229 77 397t220.5 258.5t339.5 90.5q197 0 341.5 -90.5t221 -257t76.5 -396.5q0 -229 -76.5 -398t-221 -259t-341.5 -90q-194 0 -338.5 90t-221.5 258t-77 397zM231 731q0 -313 143.5 -488t401.5 -175t401.5 174t143.5 489t-142.5 487.5t-402.5 172.5 t-402.5 -173.5t-142.5 -486.5zM481 1890h125l207 -307h-76z" />
<glyph unicode="&#xd3;" horiz-adv-x="1554" d="M139 729q0 229 77 397t220.5 258.5t339.5 90.5q197 0 341.5 -90.5t221 -257t76.5 -396.5q0 -229 -76.5 -398t-221 -259t-341.5 -90q-194 0 -338.5 90t-221.5 258t-77 397zM231 731q0 -313 143.5 -488t401.5 -175t401.5 174t143.5 489t-142.5 487.5t-402.5 172.5 t-402.5 -173.5t-142.5 -486.5zM737 1583l207 307h125l-256 -307h-76z" />
<glyph unicode="&#xd4;" horiz-adv-x="1554" d="M139 729q0 229 77 397t220.5 258.5t339.5 90.5q197 0 341.5 -90.5t221 -257t76.5 -396.5q0 -229 -76.5 -398t-221 -259t-341.5 -90q-194 0 -338.5 90t-221.5 258t-77 397zM231 731q0 -313 143.5 -488t401.5 -175t401.5 174t143.5 489t-142.5 487.5t-402.5 172.5 t-402.5 -173.5t-142.5 -486.5zM506 1583l231 307h76l231 -307h-106l-162 234l-164 -234h-106z" />
<glyph unicode="&#xd5;" horiz-adv-x="1554" d="M139 729q0 229 77 397t220.5 258.5t339.5 90.5q197 0 341.5 -90.5t221 -257t76.5 -396.5q0 -229 -76.5 -398t-221 -259t-341.5 -90q-194 0 -338.5 90t-221.5 258t-77 397zM231 731q0 -313 143.5 -488t401.5 -175t401.5 174t143.5 489t-142.5 487.5t-402.5 172.5 t-402.5 -173.5t-142.5 -486.5zM456 1642q0 93 43 147t121 54q45 0 83 -17.5t97 -53.5q41 -27 69 -40.5t52 -13.5q51 0 78 36t25 83h69q0 -90 -43 -145.5t-121 -55.5q-45 0 -85.5 18.5t-94.5 53.5q-45 27 -71.5 39t-49.5 12q-51 0 -77.5 -34.5t-24.5 -82.5h-70z" />
<glyph unicode="&#xd6;" horiz-adv-x="1554" d="M139 729q0 229 77 397t220.5 258.5t339.5 90.5q197 0 341.5 -90.5t221 -257t76.5 -396.5q0 -229 -76.5 -398t-221 -259t-341.5 -90q-194 0 -338.5 90t-221.5 258t-77 397zM231 731q0 -313 143.5 -488t401.5 -175t401.5 174t143.5 489t-142.5 487.5t-402.5 172.5 t-402.5 -173.5t-142.5 -486.5zM544 1677v125h127v-125h-127zM878 1677v125h127v-125h-127z" />
<glyph unicode="&#xd7;" d="M131 160l426 428l-426 426l57 57l426 -426l426 426l58 -57l-426 -426l426 -428l-58 -56l-426 426l-426 -426z" />
<glyph unicode="&#xd8;" horiz-adv-x="1554" d="M139 729q0 229 77 397t220.5 258.5t339.5 90.5q195 0 340 -89l84 144l68 -37l-88 -152q114 -96 174.5 -251.5t60.5 -358.5q0 -229 -76.5 -398t-221 -259t-341.5 -90q-195 0 -338 90l-84 -146l-69 37l90 154q-113 96 -174.5 251.5t-61.5 358.5zM231 731q0 -180 48.5 -316 t140.5 -220l653 1118q-125 78 -297 78q-260 0 -402.5 -173.5t-142.5 -486.5zM481 147q123 -80 295 -79q258 0 401.5 174t143.5 489q0 180 -47 315.5t-139 219.5z" />
<glyph unicode="&#xd9;" horiz-adv-x="1478" d="M188 553v905h84v-919q0 -471 469 -471q229 0 347 118.5t118 352.5v919h86v-905q0 -281 -140 -425t-411 -144q-272 0 -412.5 144t-140.5 425zM446 1890h125l207 -307h-76z" />
<glyph unicode="&#xda;" horiz-adv-x="1478" d="M188 553v905h84v-919q0 -471 469 -471q229 0 347 118.5t118 352.5v919h86v-905q0 -281 -140 -425t-411 -144q-272 0 -412.5 144t-140.5 425zM702 1583l207 307h125l-256 -307h-76z" />
<glyph unicode="&#xdb;" horiz-adv-x="1478" d="M188 553v905h84v-919q0 -471 469 -471q229 0 347 118.5t118 352.5v919h86v-905q0 -281 -140 -425t-411 -144q-272 0 -412.5 144t-140.5 425zM471 1583l231 307h76l231 -307h-106l-162 234l-164 -234h-106z" />
<glyph unicode="&#xdc;" horiz-adv-x="1478" d="M188 553v905h84v-919q0 -471 469 -471q229 0 347 118.5t118 352.5v919h86v-905q0 -281 -140 -425t-411 -144q-272 0 -412.5 144t-140.5 425zM509 1677v125h127v-125h-127zM843 1677v125h127v-125h-127z" />
<glyph unicode="&#xdd;" horiz-adv-x="1202" d="M2 1458h102l498 -768l498 768h98l-555 -852v-606h-86v610zM561 1583l207 307h125l-256 -307h-76z" />
<glyph unicode="&#xde;" horiz-adv-x="1306" d="M199 0v1458h86v-336h463q217 0 333.5 -98t116.5 -279q0 -184 -117.5 -284.5t-332.5 -100.5h-463v-360h-86zM285 440h463q358 0 358 305q0 152 -88 224.5t-270 72.5h-463v-602z" />
<glyph unicode="&#xdf;" horiz-adv-x="1226" d="M180 0v1047q0 227 115 346.5t326 119.5q164 0 256 -81.5t92 -231.5q0 -145 -79 -253.5t-257 -186.5q268 -66 393 -181.5t125 -267.5t-96.5 -238.5t-261.5 -86.5q-106 0 -203.5 36.5t-165.5 102.5l43 72q88 -68 164 -96.5t160 -30.5q131 0 199.5 60t68.5 179 q0 129 -120 224.5t-419 177.5v73q201 82 282 183.5t81 236.5q0 111 -66.5 169.5t-193.5 58.5q-176 0 -267.5 -95.5t-91.5 -285.5v-1051h-84z" />
<glyph unicode="&#xe0;" horiz-adv-x="1193" d="M111 514q0 160 57 280.5t160.5 187.5t238.5 67q129 0 222.5 -55.5t138.5 -162.5v193h86v-1024h-86v205q-45 -106 -138.5 -162.5t-222.5 -56.5q-137 0 -240.5 64.5t-159.5 184t-56 279.5zM203 514q0 -211 97 -327.5t269 -116.5q170 0 264.5 117.5t94.5 330.5 q0 215 -94.5 331t-266.5 116t-268 -119t-96 -332zM301 1573h129l207 -413h-76z" />
<glyph unicode="&#xe1;" horiz-adv-x="1193" d="M111 514q0 160 57 280.5t160.5 187.5t238.5 67q129 0 222.5 -55.5t138.5 -162.5v193h86v-1024h-86v205q-45 -106 -138.5 -162.5t-222.5 -56.5q-137 0 -240.5 64.5t-159.5 184t-56 279.5zM203 514q0 -211 97 -327.5t269 -116.5q170 0 264.5 117.5t94.5 330.5 q0 215 -94.5 331t-266.5 116t-268 -119t-96 -332zM561 1160l207 413h129l-260 -413h-76z" />
<glyph unicode="&#xe2;" horiz-adv-x="1193" d="M111 514q0 160 57 280.5t160.5 187.5t238.5 67q129 0 222.5 -55.5t138.5 -162.5v193h86v-1024h-86v205q-45 -106 -138.5 -162.5t-222.5 -56.5q-137 0 -240.5 64.5t-159.5 184t-56 279.5zM203 514q0 -211 97 -327.5t269 -116.5q170 0 264.5 117.5t94.5 330.5 q0 215 -94.5 331t-266.5 116t-268 -119t-96 -332zM330 1160l229 413h80l229 -413h-106l-162 325l-164 -325h-106z" />
<glyph unicode="&#xe3;" horiz-adv-x="1193" d="M111 514q0 160 57 280.5t160.5 187.5t238.5 67q129 0 222.5 -55.5t138.5 -162.5v193h86v-1024h-86v205q-45 -106 -138.5 -162.5t-222.5 -56.5q-137 0 -240.5 64.5t-159.5 184t-56 279.5zM203 514q0 -211 97 -327.5t269 -116.5q170 0 264.5 117.5t94.5 330.5 q0 215 -94.5 331t-266.5 116t-268 -119t-96 -332zM280 1272q0 90 43 145.5t121 55.5q45 0 83 -17.5t97 -54.5q41 -27 69 -40t52 -13q51 0 78 36t25 83h69q0 -92 -43 -146.5t-121 -54.5q-45 0 -82.5 17.5t-97.5 54.5q-41 27 -68.5 40t-52.5 13q-51 0 -77.5 -36t-24.5 -83h-70 z" />
<glyph unicode="&#xe4;" horiz-adv-x="1193" d="M111 514q0 160 57 280.5t160.5 187.5t238.5 67q129 0 222.5 -55.5t138.5 -162.5v193h86v-1024h-86v205q-45 -106 -138.5 -162.5t-222.5 -56.5q-137 0 -240.5 64.5t-159.5 184t-56 279.5zM203 514q0 -211 97 -327.5t269 -116.5q170 0 264.5 117.5t94.5 330.5 q0 215 -94.5 331t-266.5 116t-268 -119t-96 -332zM368 1305v125h127v-125h-127zM702 1305v125h127v-125h-127z" />
<glyph unicode="&#xe5;" horiz-adv-x="1193" d="M111 514q0 160 57 280.5t160.5 187.5t238.5 67q129 0 222.5 -55.5t138.5 -162.5v193h86v-1024h-86v205q-45 -106 -138.5 -162.5t-222.5 -56.5q-137 0 -240.5 64.5t-159.5 184t-56 279.5zM203 514q0 -211 97 -327.5t269 -116.5q170 0 264.5 117.5t94.5 330.5 q0 215 -94.5 331t-266.5 116t-268 -119t-96 -332zM401 1366q0 82 57.5 138.5t141.5 56.5q82 0 139.5 -56.5t57.5 -138.5t-57.5 -139t-139.5 -57q-84 0 -141.5 57.5t-57.5 138.5zM493 1366q0 -47 31 -78.5t76 -31.5t74.5 31.5t29.5 78.5t-29.5 78t-74.5 31t-76 -30.5 t-31 -78.5z" />
<glyph unicode="&#xe6;" horiz-adv-x="1822" d="M147 303q0 115 59.5 183.5t192.5 100t361 31.5h88v46q0 160 -60.5 230.5t-197.5 70.5q-92 0 -178 -28t-181 -85l-41 72q74 59 178.5 92t211.5 33q283 0 342 -228q57 106 156.5 167t224.5 61q197 0 306 -130.5t109 -363.5v-20h-780v-15q0 -219 100.5 -334.5t286.5 -115.5 q168 0 336 133l39 -74q-63 -63 -165.5 -103t-205.5 -40q-162 0 -273.5 78.5t-162.5 226.5q-35 -143 -135.5 -224t-247.5 -81q-102 0 -184 41t-130.5 112.5t-48.5 163.5zM246 307q0 -106 73.5 -170.5t192.5 -64.5q96 0 172 47t120 131t44 192v93h-84q-201 0 -312.5 -23 t-158.5 -72t-47 -133zM944 618h688q-12 170 -97 261.5t-230 91.5q-148 0 -243 -94.5t-118 -258.5z" />
<glyph unicode="&#xe7;" horiz-adv-x="997" d="M111 514q0 158 58 279.5t164.5 188.5t248.5 67q102 0 194 -37t154 -101l-41 -73q-84 68 -155.5 98.5t-151.5 30.5q-176 0 -277.5 -122t-101.5 -333q0 -209 100 -325.5t277 -116.5q80 0 152.5 29.5t156.5 97.5l41 -72q-62 -62 -150 -98.5t-182 -40.5l-6 -78q27 8 61 8 q57 0 103.5 -36t46.5 -107q0 -74 -58.5 -120t-158.5 -46q-45 0 -93.5 9t-82.5 30l28 71q66 -29 152 -28q61 0 93 22.5t32 61.5q0 31 -18.5 47t-55.5 16q-49 0 -106 -22l-39 28l14 148q-182 23 -290.5 165t-108.5 359z" />
<glyph unicode="&#xe8;" horiz-adv-x="1107" d="M111 516q0 158 59 278.5t166.5 187.5t247.5 67q197 0 308.5 -129t111.5 -361v-24h-797v-19q0 -215 101.5 -330.5t289.5 -115.5q96 0 180 31.5t166 101.5l41 -74q-66 -66 -169 -104.5t-214 -38.5q-227 0 -359 141t-132 389zM213 618h705q-12 170 -98.5 261.5t-235.5 91.5 q-152 0 -249 -93.5t-122 -259.5zM285 1573h129l207 -413h-76z" />
<glyph unicode="&#xe9;" horiz-adv-x="1107" d="M111 516q0 158 59 278.5t166.5 187.5t247.5 67q197 0 308.5 -129t111.5 -361v-24h-797v-19q0 -215 101.5 -330.5t289.5 -115.5q96 0 180 31.5t166 101.5l41 -74q-66 -66 -169 -104.5t-214 -38.5q-227 0 -359 141t-132 389zM213 618h705q-12 170 -98.5 261.5t-235.5 91.5 q-152 0 -249 -93.5t-122 -259.5zM545 1160l207 413h129l-260 -413h-76z" />
<glyph unicode="&#xea;" horiz-adv-x="1107" d="M111 516q0 158 59 278.5t166.5 187.5t247.5 67q197 0 308.5 -129t111.5 -361v-24h-797v-19q0 -215 101.5 -330.5t289.5 -115.5q96 0 180 31.5t166 101.5l41 -74q-66 -66 -169 -104.5t-214 -38.5q-227 0 -359 141t-132 389zM213 618h705q-12 170 -98.5 261.5t-235.5 91.5 q-152 0 -249 -93.5t-122 -259.5zM314 1160l229 413h80l229 -413h-106l-162 325l-164 -325h-106z" />
<glyph unicode="&#xeb;" horiz-adv-x="1107" d="M111 516q0 158 59 278.5t166.5 187.5t247.5 67q197 0 308.5 -129t111.5 -361v-24h-797v-19q0 -215 101.5 -330.5t289.5 -115.5q96 0 180 31.5t166 101.5l41 -74q-66 -66 -169 -104.5t-214 -38.5q-227 0 -359 141t-132 389zM213 618h705q-12 170 -98.5 261.5t-235.5 91.5 q-152 0 -249 -93.5t-122 -259.5zM352 1305v125h127v-125h-127zM686 1305v125h127v-125h-127z" />
<glyph unicode="&#xec;" horiz-adv-x="446" d="M-74 1573h129l207 -413h-76zM180 0v1024h84v-1024h-84z" />
<glyph unicode="&#xed;" horiz-adv-x="446" d="M180 0v1024h84v-1024h-84zM186 1160l207 413h129l-260 -413h-76z" />
<glyph unicode="&#xee;" horiz-adv-x="446" d="M-45 1160l229 413h80l229 -413h-106l-162 325l-164 -325h-106zM180 0v1024h84v-1024h-84z" />
<glyph unicode="&#xef;" horiz-adv-x="446" d="M-7 1305v125h127v-125h-127zM180 0v1024h84v-1024h-84zM327 1305v125h127v-125h-127z" />
<glyph unicode="&#xf0;" horiz-adv-x="1138" d="M111 473q0 147 57 258t162.5 171.5t242.5 60.5q125 0 216.5 -49.5t144.5 -145.5q-37 285 -223 469l-322 -135l-31 74l285 118q-129 96 -301 152l27 72q211 -68 356 -189l270 115l29 -76l-233 -98q237 -244 237 -674q0 -303 -115.5 -456.5t-345.5 -153.5q-137 0 -240.5 60 t-159.5 171t-56 256zM203 473q0 -193 94 -298t268 -105q170 0 267.5 107.5t97.5 295.5q0 190 -96.5 297t-266.5 107q-172 0 -268 -106.5t-96 -297.5z" />
<glyph unicode="&#xf1;" horiz-adv-x="1167" d="M164 1024h82l14 -195q43 106 139.5 163t221.5 57q372 -1 372 -390v-659h-86v651q0 164 -66.5 240t-211.5 76q-166 0 -265.5 -100.5t-99.5 -270.5v-596h-84v741q0 160 -16 283zM266 1272q0 90 43 145.5t121 55.5q45 0 83 -17.5t97 -54.5q41 -27 69 -40t52 -13q51 0 78 36 t25 83h69q0 -92 -43 -146.5t-121 -54.5q-45 0 -82.5 17.5t-97.5 54.5q-41 27 -68.5 40t-52.5 13q-51 0 -77.5 -36t-24.5 -83h-70z" />
<glyph unicode="&#xf2;" horiz-adv-x="1132" d="M111 518q0 160 56 280t160.5 185.5t239.5 65.5t238.5 -65.5t160 -185.5t56.5 -280t-56.5 -280.5t-160 -186t-238.5 -65.5t-239.5 65.5t-160.5 186t-56 280.5zM203 518q0 -217 94 -332.5t268 -115.5t269.5 116.5t95.5 331.5q0 209 -96.5 328t-266.5 119t-267 -118 t-97 -329zM268 1573h129l207 -413h-76z" />
<glyph unicode="&#xf3;" horiz-adv-x="1132" d="M111 518q0 160 56 280t160.5 185.5t239.5 65.5t238.5 -65.5t160 -185.5t56.5 -280t-56.5 -280.5t-160 -186t-238.5 -65.5t-239.5 65.5t-160.5 186t-56 280.5zM203 518q0 -217 94 -332.5t268 -115.5t269.5 116.5t95.5 331.5q0 209 -96.5 328t-266.5 119t-267 -118 t-97 -329zM528 1160l207 413h129l-260 -413h-76z" />
<glyph unicode="&#xf4;" horiz-adv-x="1132" d="M111 518q0 160 56 280t160.5 185.5t239.5 65.5t238.5 -65.5t160 -185.5t56.5 -280t-56.5 -280.5t-160 -186t-238.5 -65.5t-239.5 65.5t-160.5 186t-56 280.5zM203 518q0 -217 94 -332.5t268 -115.5t269.5 116.5t95.5 331.5q0 209 -96.5 328t-266.5 119t-267 -118 t-97 -329zM297 1160l229 413h80l229 -413h-106l-162 325l-164 -325h-106z" />
<glyph unicode="&#xf5;" horiz-adv-x="1132" d="M111 518q0 160 56 280t160.5 185.5t239.5 65.5t238.5 -65.5t160 -185.5t56.5 -280t-56.5 -280.5t-160 -186t-238.5 -65.5t-239.5 65.5t-160.5 186t-56 280.5zM203 518q0 -217 94 -332.5t268 -115.5t269.5 116.5t95.5 331.5q0 209 -96.5 328t-266.5 119t-267 -118 t-97 -329zM247 1272q0 90 43 145.5t121 55.5q45 0 83 -17.5t97 -54.5q41 -27 69 -40t52 -13q51 0 78 36t25 83h69q0 -92 -43 -146.5t-121 -54.5q-45 0 -82.5 17.5t-97.5 54.5q-41 27 -68.5 40t-52.5 13q-51 0 -77.5 -36t-24.5 -83h-70z" />
<glyph unicode="&#xf6;" horiz-adv-x="1132" d="M111 518q0 160 56 280t160.5 185.5t239.5 65.5t238.5 -65.5t160 -185.5t56.5 -280t-56.5 -280.5t-160 -186t-238.5 -65.5t-239.5 65.5t-160.5 186t-56 280.5zM203 518q0 -217 94 -332.5t268 -115.5t269.5 116.5t95.5 331.5q0 209 -96.5 328t-266.5 119t-267 -118 t-97 -329zM335 1305v125h127v-125h-127zM669 1305v125h127v-125h-127z" />
<glyph unicode="&#xf7;" d="M111 545v82h1007v-82h-1007zM520 84v170h164v-170h-164zM520 920v170h164v-170h-164z" />
<glyph unicode="&#xf8;" horiz-adv-x="1132" d="M111 518q0 160 56 280t160.5 185.5t239.5 65.5q123 0 226 -58l67 117l76 -39l-74 -129q76 -70 118 -178.5t42 -243.5q0 -160 -56.5 -280.5t-160 -186t-238.5 -65.5q-127 0 -225 57l-70 -119l-75 43l73 127q-76 70 -117.5 178.5t-41.5 245.5zM205 518q-1 -235 108 -350 l437 750q-78 47 -183 47q-170 0 -266 -119t-96 -328zM383 115q72 -45 182 -45q174 0 269.5 116.5t95.5 331.5q0 113 -29 201t-84 145z" />
<glyph unicode="&#xf9;" horiz-adv-x="1148" d="M174 377v647h84v-639q0 -162 66.5 -238.5t203.5 -76.5q162 0 259.5 101t97.5 269v584h84v-1024h-82v195q-49 -100 -142.5 -154.5t-209.5 -54.5q-176 0 -268.5 99t-92.5 292zM277 1573h129l207 -413h-76z" />
<glyph unicode="&#xfa;" horiz-adv-x="1148" d="M174 377v647h84v-639q0 -162 66.5 -238.5t203.5 -76.5q162 0 259.5 101t97.5 269v584h84v-1024h-82v195q-49 -100 -142.5 -154.5t-209.5 -54.5q-176 0 -268.5 99t-92.5 292zM537 1160l207 413h129l-260 -413h-76z" />
<glyph unicode="&#xfb;" horiz-adv-x="1148" d="M174 377v647h84v-639q0 -162 66.5 -238.5t203.5 -76.5q162 0 259.5 101t97.5 269v584h84v-1024h-82v195q-49 -100 -142.5 -154.5t-209.5 -54.5q-176 0 -268.5 99t-92.5 292zM306 1160l229 413h80l229 -413h-106l-162 325l-164 -325h-106z" />
<glyph unicode="&#xfc;" horiz-adv-x="1148" d="M174 377v647h84v-639q0 -162 66.5 -238.5t203.5 -76.5q162 0 259.5 101t97.5 269v584h84v-1024h-82v195q-49 -100 -142.5 -154.5t-209.5 -54.5q-176 0 -268.5 99t-92.5 292zM344 1305v125h127v-125h-127zM678 1305v125h127v-125h-127z" />
<glyph unicode="&#xfd;" horiz-adv-x="1064" d="M49 1024h92l394 -946l395 946h88l-483 -1141q-70 -164 -172.5 -239.5t-256.5 -108.5l-16 70q147 35 225 92t129 182l43 109zM494 1160l207 413h129l-260 -413h-76z" />
<glyph unicode="&#xfe;" horiz-adv-x="1193" d="M180 -442v1949h84v-684q45 109 138.5 167.5t224.5 58.5t234.5 -64.5t162.5 -185.5t59 -285t-59 -283.5t-162.5 -182t-234.5 -62.5q-133 0 -225.5 58t-137.5 171v-657h-84zM266 518q0 -215 93.5 -331.5t267.5 -116.5t268 117.5t94 326.5t-94 330t-266 121 q-176 0 -269.5 -116t-93.5 -331z" />
<glyph unicode="&#xff;" horiz-adv-x="1064" d="M49 1024h92l394 -946l395 946h88l-483 -1141q-70 -164 -172.5 -239.5t-256.5 -108.5l-16 70q147 35 225 92t129 182l43 109zM301 1305v125h127v-125h-127zM635 1305v125h127v-125h-127z" />
<glyph unicode="&#x152;" horiz-adv-x="2164" d="M139 729q0 231 77 399t221.5 257.5t342.5 89.5q229 0 391 -117v100h877v-80h-791v-598h750v-82h-750v-618h791v-80h-877v102q-162 -119 -391 -118q-197 0 -341 90t-222 258t-78 397zM231 731q0 -313 143.5 -488t401.5 -175q248 0 395 141v1040q-147 141 -395 142 q-258 0 -401.5 -174.5t-143.5 -485.5z" />
<glyph unicode="&#x153;" horiz-adv-x="1916" d="M111 518q0 160 57 280t161.5 185.5t239.5 65.5q145 0 252 -79t154 -222q49 139 160.5 220t261.5 81q197 0 306 -128t109 -362v-55h-788q4 -209 105.5 -321.5t287.5 -112.5q172 0 336 133l43 -74q-63 -63 -167.5 -103t-209.5 -40q-164 0 -277.5 80.5t-162.5 230.5 q-47 -147 -154.5 -229t-255.5 -82q-137 0 -240.5 65.5t-160.5 186t-57 280.5zM203 518q0 -217 94 -332.5t268 -115.5q176 0 270.5 115.5t94.5 332.5q0 211 -96.5 329t-266.5 118t-267 -118t-97 -329zM1026 586h705q-4 186 -91.5 285.5t-242.5 99.5q-160 0 -257.5 -102.5 t-113.5 -282.5z" />
<glyph unicode="&#x178;" horiz-adv-x="1202" d="M2 1458h102l498 -768l498 768h98l-555 -852v-606h-86v610zM368 1677v125h127v-125h-127zM702 1677v125h127v-125h-127z" />
<glyph unicode="&#x2c6;" horiz-adv-x="614" d="M41 1137l229 413h80l229 -413h-106l-162 325l-164 -325h-106z" />
<glyph unicode="&#x2dc;" horiz-adv-x="614" d="M-9 1249q0 90 43 145.5t121 55.5q45 0 83 -17.5t97 -54.5q41 -27 69 -40t52 -13q51 0 78 36t25 83h69q0 -92 -43 -146.5t-121 -54.5q-45 0 -82.5 17.5t-97.5 54.5q-41 27 -68.5 40t-52.5 13q-51 0 -77.5 -36t-24.5 -83h-70z" />
<glyph unicode="&#x2000;" horiz-adv-x="945" />
<glyph unicode="&#x2001;" horiz-adv-x="1890" />
<glyph unicode="&#x2002;" horiz-adv-x="945" />
<glyph unicode="&#x2003;" horiz-adv-x="1890" />
<glyph unicode="&#x2004;" horiz-adv-x="630" />
<glyph unicode="&#x2005;" horiz-adv-x="472" />
<glyph unicode="&#x2006;" horiz-adv-x="315" />
<glyph unicode="&#x2007;" horiz-adv-x="315" />
<glyph unicode="&#x2008;" horiz-adv-x="236" />
<glyph unicode="&#x2009;" horiz-adv-x="378" />
<glyph unicode="&#x200a;" horiz-adv-x="105" />
<glyph unicode="&#x2010;" horiz-adv-x="860" d="M158 508v80h544v-80h-544z" />
<glyph unicode="&#x2011;" horiz-adv-x="860" d="M158 508v80h544v-80h-544z" />
<glyph unicode="&#x2012;" horiz-adv-x="860" d="M158 508v80h544v-80h-544z" />
<glyph unicode="&#x2013;" horiz-adv-x="1034" d="M0 514v70h1034v-70h-1034z" />
<glyph unicode="&#x2014;" horiz-adv-x="2068" d="M0 514v70h2068v-70h-2068z" />
<glyph unicode="&#x2018;" horiz-adv-x="438" d="M150 1120v113q0 72 19 129t69 106l55 -41q-39 -43 -53.5 -80.5t-16.5 -80.5h66v-146h-139z" />
<glyph unicode="&#x2019;" horiz-adv-x="438" d="M145 1151q39 43 52.5 81t15.5 81h-63v145h139v-115q0 -70 -20.5 -127t-69.5 -106z" />
<glyph unicode="&#x201a;" horiz-adv-x="438" d="M145 -162q39 43 52.5 81t15.5 81h-63v145h139v-114q0 -145 -90 -234z" />
<glyph unicode="&#x201c;" horiz-adv-x="735" d="M150 1120v113q0 72 19 129t69 106l55 -41q-39 -43 -53.5 -80.5t-16.5 -80.5h66v-146h-139zM447 1120v113q0 72 19 129t69 106l55 -41q-39 -43 -53.5 -80.5t-16.5 -80.5h66v-146h-139z" />
<glyph unicode="&#x201d;" horiz-adv-x="735" d="M145 1151q39 43 52.5 81t15.5 81h-63v145h139v-115q0 -70 -20.5 -127t-69.5 -106zM442 1151q39 43 52.5 81t15.5 81h-63v145h139v-115q0 -70 -20.5 -127t-69.5 -106z" />
<glyph unicode="&#x201e;" horiz-adv-x="735" d="M145 -162q39 43 52.5 81t15.5 81h-63v145h139v-114q0 -145 -90 -234zM442 -162q39 43 52.5 81t15.5 81h-63v145h139v-114q0 -145 -90 -234z" />
<glyph unicode="&#x2022;" horiz-adv-x="1083" d="M168 549q0 94 49 179t135 136t191 51q98 0 184 -48t137 -132t51 -186q0 -100 -50 -184t-136 -133.5t-186 -49.5q-101 0 -187 48.5t-137 133.5t-51 185z" />
<glyph unicode="&#x2026;" horiz-adv-x="1314" d="M150 0v145h139v-145h-139zM586 0v145h143v-145h-143zM1024 0v145h143v-145h-143z" />
<glyph unicode="&#x202f;" horiz-adv-x="378" />
<glyph unicode="&#x2039;" horiz-adv-x="487" d="M59 547l271 368h96l-262 -366l254 -367h-92z" />
<glyph unicode="&#x203a;" horiz-adv-x="487" d="M61 915h97l270 -368l-266 -365h-94l256 367z" />
<glyph unicode="&#x205f;" horiz-adv-x="472" />
<glyph unicode="&#x20ac;" d="M23 535v81h229q-4 74 -4 115q0 39 4 113h-229v84h237q35 264 169 405.5t349 141.5q252 0 426 -197l-43 -72q-74 86 -178 136.5t-209 50.5q-178 0 -285.5 -118t-138.5 -347h389v-84h-397q-4 -74 -4 -113q0 -41 4 -115h397v-81h-389q29 -231 136.5 -350t287.5 -119 q105 0 209 50t178 136l43 -72q-80 -90 -195.5 -143t-230.5 -53q-217 0 -350 142t-168 409h-237z" />
<glyph unicode="&#x2122;" horiz-adv-x="1859" d="M8 1382v76h709v-76h-311v-794h-87v794h-311zM856 588v870h72l342 -649l338 649h69v-870h-80v696l-297 -569h-63l-297 557v-684h-84z" />
<glyph unicode="&#x25fc;" horiz-adv-x="1024" d="M0 0v1024h1024v-1024h-1024z" />
</font>
</defs>
</svg>
